<svg width="100%" height="100%" id="svg" viewBox="0 0 1440 690" xmlns="http://www.w3.org/2000/svg" class="transition duration-300 ease-in-out delay-150"><defs><linearGradient id="gradient" x1="3%" y1="67%" x2="97%" y2="33%"><stop offset="5%" stop-color="#ffe1ed"></stop><stop offset="95%" stop-color="#ecbad0"></stop></linearGradient></defs><path d="M 0,700 L 0,405 C 97.44102564102565,418.1166666666667 194.8820512820513,431.2333333333333 264,407 C 333.1179487179487,382.7666666666667 373.9128205128204,321.1833333333333 456,281 C 538.0871794871796,240.8166666666667 661.4666666666667,222.03333333333336 749,223 C 836.5333333333333,223.96666666666664 888.2205128205128,244.68333333333334 969,214 C 1049.7794871794872,183.31666666666666 1159.6512820512821,101.23333333333332 1243,62 C 1326.3487179487179,22.766666666666673 1383.174358974359,26.383333333333336 1440,30 L 1440,700 L 0,700 Z" stroke="none" stroke-width="0" fill="url(#gradient)" fill-opacity="0.265" class="transition-all duration-300 ease-in-out delay-150 path-0"></path><defs><linearGradient id="gradient" x1="3%" y1="67%" x2="97%" y2="33%"><stop offset="5%" stop-color="#ffe1ed"></stop><stop offset="95%" stop-color="#ecbad0"></stop></linearGradient></defs><path d="M 0,700 L 0,545 C 63.57435897435897,527.9474358974359 127.14871794871794,510.8948717948718 218,507 C 308.85128205128206,503.1051282051282 426.97948717948725,512.3679487179488 502,498 C 577.0205128205127,483.63205128205124 608.9333333333333,445.6333333333333 680,409 C 751.0666666666667,372.3666666666667 861.2871794871796,337.098717948718 961,301 C 1060.7128205128204,264.901282051282 1149.9179487179485,227.97179487179486 1228,206 C 1306.0820512820515,184.02820512820514 1373.0410256410257,177.0141025641026 1440,170 L 1440,700 L 0,700 Z" stroke="none" stroke-width="0" fill="url(#gradient)" fill-opacity="0.4" class="transition-all duration-300 ease-in-out delay-150 path-1"></path><defs><linearGradient id="gradient" x1="3%" y1="67%" x2="97%" y2="33%"><stop offset="5%" stop-color="#ffe1ed"></stop><stop offset="95%" stop-color="#ecbad0"></stop></linearGradient></defs><path d="M 0,700 L 0,685 C 73.93589743589746,696.2551282051281 147.87179487179492,707.5102564102564 230,703 C 312.1282051282051,698.4897435897436 402.4487179487179,678.2141025641026 488,642 C 573.5512820512821,605.7858974358974 654.3333333333335,553.6333333333332 729,529 C 803.6666666666665,504.36666666666673 872.2179487179485,507.2525641025641 940,493 C 1007.7820512820515,478.7474358974359 1074.7948717948718,447.35641025641024 1158,414 C 1241.2051282051282,380.64358974358976 1340.602564102564,345.32179487179485 1440,310 L 1440,700 L 0,700 Z" stroke="none" stroke-width="0" fill="url(#gradient)" fill-opacity="0.53" class="transition-all duration-300 ease-in-out delay-150 path-2"></path><defs><linearGradient id="gradient" x1="3%" y1="67%" x2="97%" y2="33%"><stop offset="5%" stop-color="#ffe1ed"></stop><stop offset="95%" stop-color="#ecbad0"></stop></linearGradient></defs><path d="M 0,700 L 0,825 C 80.69487179487183,832.0294871794872 161.38974358974366,839.0589743589743 237,816 C 312.61025641025634,792.9410256410257 383.1358974358974,739.7935897435898 455,721 C 526.8641025641026,702.2064102564102 600.0666666666667,717.7666666666667 684,700 C 767.9333333333333,682.2333333333333 862.5974358974358,631.1397435897436 946,597 C 1029.4025641025642,562.8602564102564 1101.5435897435898,545.6743589743589 1182,524 C 1262.4564102564102,502.325641025641 1351.228205128205,476.16282051282053 1440,450 L 1440,700 L 0,700 Z" stroke="none" stroke-width="0" fill="url(#gradient)" fill-opacity="1" class="transition-all duration-300 ease-in-out delay-150 path-3"></path></svg>